<svg xmlns="http://www.w3.org/2000/svg" width="48" height="48" viewBox="0 0 48 48"><g transform="translate(0 -1004.362)"><circle cx="24" cy="1028.362" r="24" fill="#3a6c87"/><path fill="#2f4b6c" style="line-height:normal;-inkscape-font-specification:Sans;text-indent:0;text-align:start;text-decoration-line:none;text-transform:none;block-progression:tb;marker:none" d="M 25.28125 47.955078 A 23.999998 23.999998 0 0 0 25.697266 47.939453 A 23.999998 23.999998 0 0 0 28.080078 47.650391 A 23.999998 23.999998 0 0 0 30.419922 47.125 A 23.999998 23.999998 0 0 0 32.697266 46.369141 A 23.999998 23.999998 0 0 0 34.886719 45.388672 A 23.999998 23.999998 0 0 0 36.966797 44.195312 A 23.999998 23.999998 0 0 0 38.917969 42.800781 A 23.999998 23.999998 0 0 0 40.720703 41.216797 A 23.999998 23.999998 0 0 0 42.355469 39.460938 A 23.999998 23.999998 0 0 0 43.808594 37.550781 A 23.999998 23.999998 0 0 0 45.0625 35.505859 A 23.999998 23.999998 0 0 0 46.105469 33.345703 A 23.999998 23.999998 0 0 0 46.927734 31.091797 A 23.999998 23.999998 0 0 0 47.521484 28.767578 A 23.999998 23.999998 0 0 0 47.835938 26.6875 L 38.71875 17.570312 C 38.62158 17.473138 38.515269 17.389314 38.402344 17.318359 C 38.176498 17.17645 37.924834 17.08575 37.667969 17.041016 C 37.539536 17.018648 37.409439 17.007812 37.28125 17.007812 C 36.790203 17.007812 36.309184 17.172477 35.927734 17.527344 L 33.84375 15.445312 L 29.84375 11.445312 L 29.830078 11.431641 C 29.79464 11.396224 29.747534 11.376737 29.703125 11.353516 C 29.680896 11.341922 29.66431 11.322709 29.640625 11.314453 C 29.565471 11.288019 29.485176 11.277932 29.40625 11.289062 L 29.34375 11.289062 C 29.13723 11.357063 28.98922 11.571964 29 11.789062 L 29 12.304688 L 27.855469 11.160156 L 27.853516 11.158203 C 27.807198 11.112623 27.75239 11.07485 27.693359 11.048828 C 27.632675 11.022078 27.566952 11.006875 27.5 11.007812 L 14.5 11.007812 C 14.4483 10.997814 14.395411 10.997813 14.34375 11.007812 C 14.13723 11.075813 13.98922 11.290813 14 11.507812 L 14 36.476562 C 14.000015 36.607464 14.060085 36.731919 14.152344 36.824219 L 25.28125 47.955078 z " color="#000" font-family="Sans" font-weight="400" transform="translate(0 1004.362)"/><path fill="#fff" style="line-height:normal;-inkscape-font-specification:Sans;text-indent:0;text-align:start;text-decoration-line:none;text-transform:none;block-progression:tb;marker:none" d="m 14.344303,1015.3697 c -0.20652,0.068 -0.35453,0.283 -0.34375,0.5 l 0,24.9687 c 3e-5,0.2618 0.23821,0.4999 0.500001,0.5 l 2.28125,0 c 0.26416,0 0.50712,-0.2359 0.50712,-0.5 0,-0.2642 -0.24296,-0.5038 -0.50712,-0.5 l -1.78125,0 0,-23.9687 12.5,0 c 0.26416,0 0.50712,-0.2358 0.50712,-0.5 0,-0.2642 -0.24296,-0.5037 -0.50712,-0.5 l -13,0 c -0.0517,-0.01 -0.10459,-0.01 -0.156251,0 z m 15.000001,0.2813 c -0.20652,0.068 -0.35453,0.2829 -0.34375,0.5 l 0,3.9999 c 3e-5,0.2618 0.23821,0.4999 0.5,0.5 l 4,0 c 0.38166,-0.015 0.60655,-0.5666 0.34375,-0.8438 l -4,-3.9999 c -0.10915,-0.1184 -0.27803,-0.1787 -0.4375,-0.1562 -0.0208,0 -0.0417,0 -0.0625,0 z m 0.65625,1.6875 2.3125,2.3124 -2.3125,0 z m -13,2.0311 0,1 9,0 0,-1 z m 16.375,2 c -0.22874,0.058 -0.39696,0.2963 -0.375,0.5313 l 0,0.9375 c -0.004,0.2641 0.23582,0.5071 0.5,0.5071 0.26418,0 0.50374,-0.243 0.5,-0.5071 l 0,-0.9375 c 0.0208,-0.2942 -0.27002,-0.5688 -0.5625,-0.5313 -0.0208,0 -0.0417,0 -0.0625,0 z m 3.90625,0 c -0.51277,0 -1.01757,0.1738 -1.40625,0.5625 l -0.90625,0.9375 c -0.0598,0.031 -0.11327,0.073 -0.15625,0.125 -0.0516,0.043 -0.0944,0.096 -0.125,0.1563 l -15.28125,15.2812 c -0.15535,0.1554 -0.19587,0.3047 -0.28125,0.4375 l -1.40625,4.125 c -0.12048,0.3584 0.30419,0.7628 0.65625,0.625 l 4.21875,-1.4062 c 0.14107,-0.082 0.17809,-0.071 0.28125,-0.25 l 15.34375,-15.3438 c 0.0335,-0.017 0.065,-0.038 0.0937,-0.062 l 0.0312,-0.031 c 0.0516,-0.043 0.0944,-0.097 0.125,-0.1563 l 0.9375,-0.9062 c 0.77736,-0.7774 0.77737,-2.0351 0,-2.8125 l -0.6875,-0.7188 c -0.38868,-0.3887 -0.92473,-0.5625 -1.4375,-0.5625 z m 0,0.9688 c 0.25409,0 0.51982,0.1136 0.71875,0.3125 l 0.71875,0.7187 c 0.39786,0.3978 0.39785,1.0085 0,1.4063 l -0.71875,0.7187 -0.71875,-0.7187 -0.34375,-0.375 -0.34375,-0.3438 -0.71875,-0.6875 0.71875,-0.7187 c 0.19892,-0.1989 0.43341,-0.3126 0.6875,-0.3125 z m -20.28125,0.031 0,1 11,0 0,-1 z m 18.15625,1.6875 0.71875,0.7188 -14.84375,14.8437 -0.71875,-0.7187 z m -18.15625,1.3125 0,1 13,0 0,-1 z m 19.59375,0.125 0.6875,0.6875 -14.84375,14.8438 -0.6875,-0.6875 z m -3.21875,6.875 c -0.22874,0.058 -0.39696,0.2963 -0.375,0.5313 l 0,3.2187 0,4.2188 -4.25,0 -3.25,0 c -0.26416,0 -0.50712,0.2358 -0.50712,0.5 0,0.2641 0.24296,0.5037 0.50712,0.5 l 3.25,0 4.75,0 c 0.26179,-10e-5 0.49997,-0.2382 0.5,-0.5 l 0,-4.7188 0,-3.2187 c 0.0208,-0.2942 -0.27002,-0.5688 -0.5625,-0.5313 -0.0208,0 -0.0417,0 -0.0625,0 z m -13.53125,7.5 1.6875,1.6563 -2.53125,0.8437 z" color="#000" font-family="Sans" font-weight="400" overflow="visible"/></g></svg>